<svg width="1em" height="1em" viewBox="0 0 23 23" color="currentColor" xmlns="http://www.w3.org/2000/svg">
    <path d="M11.5 6.89329C8.95067 6.89329 6.89325 8.95071 6.89325 11.5C6.89325 14.0493 8.95067 16.1068 11.5 16.1068C14.0493 16.1068 16.1067 14.0493 16.1067 11.5C16.1067 8.95071 14.0493 6.89329 11.5 6.89329ZM11.5 14.4941C9.85135 14.4941 8.50594 13.1487 8.50594 11.5C8.50594 9.8514 9.85135 8.50599 11.5 8.50599C13.1486 8.50599 14.494 9.8514 14.494 11.5C14.494 13.1487 13.1486 14.4941 11.5 14.4941ZM16.2954 5.63099C15.7002 5.63099 15.2195 6.11165 15.2195 6.70687C15.2195 7.30208 15.7002 7.78275 16.2954 7.78275C16.8906 7.78275 17.3713 7.30433 17.3713 6.70687C17.3715 6.56553 17.3437 6.42555 17.2897 6.29494C17.2357 6.16433 17.1565 6.04565 17.0566 5.94571C16.9566 5.84577 16.8379 5.76653 16.7073 5.71252C16.5767 5.65852 16.4367 5.63081 16.2954 5.63099ZM20.4799 11.5C20.4799 10.2602 20.4911 9.03157 20.4215 7.79398C20.3518 6.35648 20.0239 5.0807 18.9727 4.02952C17.9193 2.97611 16.6458 2.65042 15.2083 2.58079C13.9684 2.51117 12.7398 2.5224 11.5022 2.5224C10.2624 2.5224 9.03377 2.51117 7.79618 2.58079C6.35868 2.65042 5.0829 2.97835 4.03172 4.02952C2.9783 5.08294 2.65262 6.35648 2.58299 7.79398C2.51336 9.03382 2.52459 10.2624 2.52459 11.5C2.52459 12.7376 2.51336 13.9685 2.58299 15.2061C2.65262 16.6436 2.98055 17.9194 4.03172 18.9705C5.08514 20.024 6.35868 20.3496 7.79618 20.4193C9.03602 20.4889 10.2646 20.4777 11.5022 20.4777C12.7421 20.4777 13.9707 20.4889 15.2083 20.4193C16.6458 20.3496 17.9216 20.0217 18.9727 18.9705C20.0262 17.9171 20.3518 16.6436 20.4215 15.2061C20.4933 13.9685 20.4799 12.7399 20.4799 11.5ZM18.5033 16.7963C18.3393 17.2051 18.1417 17.5106 17.825 17.825C17.5083 18.1417 17.2051 18.3394 16.7963 18.5033C15.6148 18.9728 12.8095 18.8672 11.5 18.8672C10.1905 18.8672 7.3829 18.9728 6.20145 18.5056C5.79266 18.3416 5.48719 18.144 5.17274 17.8273C4.85604 17.5106 4.65838 17.2074 4.49442 16.7986C4.02723 15.6149 4.1328 12.8095 4.1328 11.5C4.1328 10.1906 4.02723 7.38294 4.49442 6.2015C4.65838 5.79271 4.85604 5.48724 5.17274 5.17279C5.48944 4.85833 5.79266 4.65843 6.20145 4.49447C7.3829 4.02728 10.1905 4.13285 11.5 4.13285C12.8095 4.13285 15.6171 4.02728 16.7985 4.49447C17.2073 4.65843 17.5128 4.85609 17.8272 5.17279C18.1439 5.48949 18.3416 5.79271 18.5056 6.2015C18.9727 7.38294 18.8672 10.1906 18.8672 11.5C18.8672 12.8095 18.9727 15.6149 18.5033 16.7963Z" fill="currentColor"/>
</svg>
