<svg width="22" height="23" viewBox="0 0 22 23" color="inherit" fill="none" xmlns="http://www.w3.org/2000/svg">
    <g clip-path="url(#clip0)">
        <path d="M4.31381 0.547363C1.94404 0.547363 0.0045166 2.52724 0.0045166 4.94643V18.5975C0.0045166 21.0167 1.94399 22.9959 4.31381 22.9959H17.6863C20.0561 22.9959 21.9949 21.0167 21.9949 18.5975V4.94643C21.9949 2.52729 20.0561 0.547363 17.6863 0.547363H4.31381ZM5.39766 4.25182C6.53392 4.25182 7.23381 5.01329 7.25541 6.01424C7.25541 6.99308 6.53387 7.77596 5.37568 7.77596H5.35437C4.23974 7.77596 3.5193 6.99313 3.5193 6.01424C3.5193 5.01332 4.26154 4.25182 5.39764 4.25182H5.39766ZM15.1894 8.93012C17.3747 8.93012 19.0128 10.3882 19.0128 13.5214V19.3707H15.6918V13.9136C15.6918 12.5423 15.2112 11.6067 14.0094 11.6067C13.0919 11.6067 12.545 12.2373 12.3049 12.8464C12.2172 13.0644 12.1956 13.3688 12.1956 13.6736V19.3707H8.87465C8.87465 19.3707 8.91823 10.1265 8.87465 9.16934H12.1963V10.614C12.6376 9.91887 13.427 8.93009 15.1894 8.93009V8.93012ZM3.71519 9.17008H7.03616V19.3707H3.71519V9.17008Z" fill="currentColor"/>
    </g>
    <defs>
        <clipPath id="clip0">
            <rect width="22" height="22.4583" fill="currentColor" transform="translate(0 0.541504)"/>
        </clipPath>
    </defs>
</svg>
