<svg width="1em" height="1em" viewBox="0 0 22 22" color="currentColor" xmlns="http://www.w3.org/2000/svg">
    <path d="M18.2123 2.40625H3.7877C3.025 2.40625 2.40625 3.025 2.40625 3.7877V18.2123C2.40625 18.975 3.025 19.5938 3.7877 19.5938H18.2123C18.975 19.5938 19.5938 18.975 19.5938 18.2123V3.7877C19.5938 3.025 18.975 2.40625 18.2123 2.40625ZM18.2123 18.2188C8.5916 18.2166 3.78125 18.2145 3.78125 18.2123C3.7834 8.5916 3.78555 3.78125 3.7877 3.78125C13.4084 3.7834 18.2188 3.78555 18.2188 3.7877C18.2166 13.4084 18.2145 18.2188 18.2123 18.2188ZM4.9543 8.84941H7.50449V17.0521H4.9543V8.84941ZM6.23047 7.72793C7.04473 7.72793 7.70859 7.06621 7.70859 6.2498C7.70859 6.05569 7.67036 5.86349 7.59608 5.68415C7.5218 5.50482 7.41292 5.34187 7.27566 5.20461C7.1384 5.06736 6.97546 4.95848 6.79612 4.8842C6.61679 4.80991 6.42458 4.77168 6.23047 4.77168C6.03636 4.77168 5.84415 4.80991 5.66481 4.8842C5.48548 4.95848 5.32253 5.06736 5.18528 5.20461C5.04802 5.34187 4.93914 5.50482 4.86486 5.68415C4.79058 5.86349 4.75234 6.05569 4.75234 6.2498C4.7502 7.06621 5.41191 7.72793 6.23047 7.72793ZM11.651 12.9937C11.651 11.9238 11.8551 10.8883 13.1807 10.8883C14.4869 10.8883 14.5063 12.1107 14.5063 13.0625V17.0521H17.0543V12.5533C17.0543 10.3447 16.5773 8.64531 13.9971 8.64531C12.7574 8.64531 11.926 9.32637 11.5844 9.9709H11.55V8.84941H9.10293V17.0521H11.651V12.9937Z" fill="currentColor"/>
</svg>
