<svg width="1em" height="1em" viewBox="0 0 19 19" color="currentColor" xmlns="http://www.w3.org/2000/svg">
    <path d="M9.73769 17.4167H9.65852C8.57277 17.4084 7.49958 17.1836 6.5018 16.7554C5.50402 16.3272 4.6017 15.7042 3.84769 14.9229C2.44948 13.4277 1.65467 11.4676 1.61666 9.42078C1.57865 7.37402 2.30013 5.38571 3.64185 3.8396C4.50626 2.87087 5.59294 2.12649 6.80852 1.67043C6.95036 1.61585 7.1049 1.60325 7.25371 1.63413C7.40251 1.66502 7.53928 1.73808 7.64769 1.8446C7.74808 1.94698 7.81879 2.0747 7.85225 2.21413C7.88572 2.35357 7.88068 2.49947 7.83769 2.63626C7.40382 3.8245 7.31786 5.11184 7.58989 6.34722C7.86193 7.58259 8.48067 8.71475 9.37352 9.61085C10.2747 10.5009 11.4095 11.1176 12.6467 11.3894C13.8838 11.6612 15.1726 11.5771 16.3639 11.1467C16.5057 11.0968 16.6588 11.0883 16.8053 11.1221C16.9517 11.156 17.0855 11.2309 17.1909 11.338C17.2964 11.4451 17.3692 11.5801 17.4008 11.727C17.4324 11.874 17.4215 12.0269 17.3694 12.1679C16.9649 13.2475 16.3332 14.2276 15.5169 15.0417C14.7575 15.7987 13.8561 16.3983 12.8643 16.8059C11.8725 17.2135 10.8099 17.421 9.73769 17.4167V17.4167Z" fill="currentColor"/>
</svg>
