<svg width="100" height="100" viewBox="0 0 16 16" fill="none" xmlns="http://www.w3.org/2000/svg">
    <rect width="16" height="16" fill="black"/>
    <path d="M2.48455 14.1181C2.32706 14.1181 2.19454 14.0643 2.08698 13.9568C1.97942 13.8492 1.92564 13.7148 1.92564 13.5534C1.92564 13.3883 1.97942 13.2557 2.08698 13.1559C2.19454 13.0522 2.32706 13.0003 2.48455 13.0003C2.64205 13.0003 2.77457 13.0522 2.88213 13.1559C2.98969 13.2557 3.04347 13.3883 3.04347 13.5534C3.04347 13.7148 2.98969 13.8492 2.88213 13.9568C2.77457 14.0643 2.64205 14.1181 2.48455 14.1181ZM6.77079 9.79664V14.072H5.91225V13.7148C5.68946 13.9837 5.36679 14.1181 4.94424 14.1181C4.6523 14.1181 4.38725 14.0528 4.14909 13.9222C3.91477 13.7916 3.73039 13.6053 3.59594 13.3633C3.46149 13.1213 3.39427 12.8409 3.39427 12.5221C3.39427 12.2032 3.46149 11.9228 3.59594 11.6808C3.73039 11.4388 3.91477 11.2525 4.14909 11.1219C4.38725 10.9913 4.6523 10.926 4.94424 10.926C5.3399 10.926 5.64912 11.0508 5.87192 11.3005V9.79664H6.77079ZM5.09982 13.3806C5.32645 13.3806 5.51468 13.3038 5.66449 13.1501C5.8143 12.9926 5.88921 12.7833 5.88921 12.5221C5.88921 12.2608 5.8143 12.0534 5.66449 11.8998C5.51468 11.7423 5.32645 11.6635 5.09982 11.6635C4.86934 11.6635 4.67919 11.7423 4.52938 11.8998C4.37957 12.0534 4.30466 12.2608 4.30466 12.5221C4.30466 12.7833 4.37957 12.9926 4.52938 13.1501C4.67919 13.3038 4.86934 13.3806 5.09982 13.3806ZM10.6393 12.5336C10.6393 12.5451 10.6335 12.6258 10.622 12.7756H8.27687C8.31912 12.9676 8.419 13.1194 8.57649 13.2308C8.73399 13.3422 8.92989 13.3979 9.16421 13.3979C9.32555 13.3979 9.46768 13.3748 9.5906 13.3287C9.71736 13.2788 9.83452 13.202 9.94208 13.0982L10.4203 13.6168C10.1284 13.951 9.702 14.1181 9.14116 14.1181C8.79161 14.1181 8.48238 14.0509 8.21349 13.9164C7.94459 13.7782 7.73716 13.588 7.59119 13.346C7.44522 13.104 7.37224 12.8294 7.37224 12.5221C7.37224 12.2186 7.4433 11.9459 7.58543 11.7039C7.7314 11.458 7.92923 11.2679 8.17892 11.1334C8.43244 10.9951 8.71478 10.926 9.02593 10.926C9.32939 10.926 9.60404 10.9913 9.84989 11.1219C10.0957 11.2525 10.2878 11.4407 10.4261 11.6866C10.5682 11.9286 10.6393 12.2109 10.6393 12.5336ZM9.03169 11.6059C8.8281 11.6059 8.65716 11.6635 8.51887 11.7788C8.38058 11.894 8.29608 12.0515 8.26534 12.2512H9.79227C9.76154 12.0553 9.67703 11.8998 9.53874 11.7845C9.40045 11.6654 9.23144 11.6059 9.03169 11.6059ZM14.2583 10.9721L12.9504 14.072H12.0227L10.7205 10.9721H11.6482L12.5067 13.081L13.394 10.9721H14.2583Z" fill="#F2994A"/>
    <path d="M7.56741 7.22388V8.28821H3.12997V2.5572H7.46098V3.62153H4.4481V4.86598H7.10893V5.89756H4.4481V7.22388H7.56741ZM14.0527 2.5572L11.572 8.28821H10.2621L7.78955 2.5572H9.2223L10.9662 6.65078L12.7346 2.5572H14.0527Z" fill="white"/>
</svg>
