<svg width="111" height="111" viewBox="0 0 111 111" fill="none" xmlns="http://www.w3.org/2000/svg">
    <rect width="111" height="111" fill="black"/>
    <path d="M17.2366 95.3198C16.1439 95.3198 15.2245 94.9467 14.4784 94.2005C13.7322 93.4544 13.3591 92.5216 13.3591 91.4024C13.3591 90.2565 13.7322 89.3371 14.4784 88.6442C15.2245 87.9247 16.1439 87.5649 17.2366 87.5649C18.3292 87.5649 19.2486 87.9247 19.9947 88.6442C20.7409 89.3371 21.114 90.2565 21.114 91.4024C21.114 92.5216 20.7409 93.4544 19.9947 94.2005C19.2486 94.9467 18.3292 95.3198 17.2366 95.3198ZM46.9723 65.3395V95H41.0162V92.5216C39.4706 94.3871 37.232 95.3198 34.3006 95.3198C32.2753 95.3198 30.4365 94.8668 28.7843 93.9607C27.1587 93.0546 25.8795 91.7621 24.9468 90.0832C24.0141 88.4043 23.5477 86.459 23.5477 84.2471C23.5477 82.0352 24.0141 80.0898 24.9468 78.4109C25.8795 76.732 27.1587 75.4395 28.7843 74.5335C30.4365 73.6274 32.2753 73.1744 34.3006 73.1744C37.0455 73.1744 39.1907 74.0405 40.7364 75.7727V65.3395H46.9723ZM35.3799 90.2032C36.9522 90.2032 38.258 89.6702 39.2973 88.6042C40.3367 87.5116 40.8563 86.0592 40.8563 84.2471C40.8563 82.4349 40.3367 80.9959 39.2973 79.9299C38.258 78.8373 36.9522 78.291 35.3799 78.291C33.781 78.291 32.4618 78.8373 31.4225 79.9299C30.3832 80.9959 29.8636 82.4349 29.8636 84.2471C29.8636 86.0592 30.3832 87.5116 31.4225 88.6042C32.4618 89.6702 33.781 90.2032 35.3799 90.2032ZM73.8099 84.327C73.8099 84.407 73.77 84.9666 73.69 86.0059H57.4207C57.7139 87.3384 58.4067 88.391 59.4994 89.1638C60.592 89.9367 61.9511 90.3231 63.5767 90.3231C64.6959 90.3231 65.682 90.1632 66.5347 89.8434C67.4141 89.497 68.2269 88.964 68.9731 88.2444L72.2909 91.8421C70.2656 94.1606 67.3076 95.3198 63.4168 95.3198C60.9917 95.3198 58.8465 94.8534 56.981 93.9207C55.1156 92.9613 53.6765 91.6422 52.6639 89.9633C51.6512 88.2844 51.1449 86.379 51.1449 84.2471C51.1449 82.1418 51.6379 80.2497 52.6239 78.5708C53.6366 76.8653 55.009 75.5461 56.7412 74.6134C58.5 73.6541 60.4587 73.1744 62.6173 73.1744C64.7226 73.1744 66.628 73.6274 68.3335 74.5335C70.0391 75.4395 71.3715 76.7453 72.3309 78.4509C73.3169 80.1298 73.8099 82.0885 73.8099 84.327ZM62.6573 77.8913C61.2449 77.8913 60.059 78.291 59.0996 79.0905C58.1403 79.8899 57.554 80.9826 57.3408 82.3683H67.9338C67.7206 81.0092 67.1343 79.9299 66.175 79.1304C65.2156 78.3043 64.043 77.8913 62.6573 77.8913ZM98.9172 73.4942L89.8431 95H83.4074L74.3733 73.4942H80.8091L86.7652 88.1245L92.9211 73.4942H98.9172Z" fill="#F2994A"/>
    <path d="M52.499 49.6162V57H21.7143V17.2412H51.7606V24.6249H30.8588V33.2583H49.3183V40.4149H30.8588V49.6162H52.499ZM97.4908 17.2412L80.2809 57H71.1932L54.0401 17.2412H63.9798L76.0778 45.6403L88.3463 17.2412H97.4908Z" fill="white"/>
</svg>
