<svg width="43" height="27" viewBox="0 0 43 27" fill="none" color="inherit" xmlns="http://www.w3.org/2000/svg">
    <path d="M10.1462 7.03931H18.2564V7.71003H10.8896V12.7576H17.8171V13.4283H10.8896V18.9701H18.3408V19.6407H10.1462V7.03931ZM18.983 7.03931H19.8447L23.6632 12.5811L27.5662 7.03922L32.8749 0L24.1532 13.1636L28.6476 19.6407H27.752L23.6632 13.746L19.5574 19.6407H18.6788L23.207 13.1635L18.9829 7.03931H18.983ZM28.9686 7.71003V7.03922H38.2109V7.70994H33.953V19.6406H33.2095V7.71003H28.9686V7.71003ZM0 7.03922H0.929287L13.7436 26.9898L8.44816 19.6406L0.777191 7.99235L0.74343 19.6408H0V7.03922ZM38.136 18.7675C37.984 18.7675 37.8702 18.6452 37.8702 18.4869C37.8702 18.3287 37.984 18.2062 38.136 18.2062C38.2897 18.2062 38.4018 18.3286 38.4018 18.4869C38.4018 18.6451 38.2897 18.7675 38.136 18.7675ZM38.8665 18.0292H39.2643C39.2697 18.2533 39.427 18.404 39.6584 18.404C39.917 18.404 40.0635 18.242 40.0635 17.9387V16.0173H40.4685V17.9406C40.4685 18.4869 40.1648 18.8015 39.662 18.8015C39.19 18.8015 38.8665 18.4963 38.8665 18.0291V18.0292ZM40.9983 18.0047H41.3998C41.4341 18.2627 41.6764 18.4266 42.0254 18.4266C42.3509 18.4266 42.5896 18.2514 42.5896 18.0103C42.5896 17.8031 42.4376 17.6788 42.0923 17.594L41.7559 17.5093C41.2839 17.3943 41.0689 17.157 41.0689 16.7576C41.0689 16.2736 41.4486 15.9514 42.0181 15.9514C42.5479 15.9514 42.9349 16.2735 42.9584 16.7313H42.5642C42.5262 16.4807 42.3165 16.3243 42.0127 16.3243C41.6927 16.3243 41.4794 16.4845 41.4794 16.7293C41.4794 16.9233 41.6167 17.0346 41.9567 17.1174L42.2441 17.1909C42.7794 17.3209 43 17.5469 43 17.9557C43 18.4756 42.6131 18.8015 41.9947 18.8015C41.4161 18.8015 41.0272 18.4906 40.9983 18.0046V18.0047Z" fill="currentColor"/>
</svg>
