<svg width="19" height="22" viewBox="0 0 19 22" fill="none" xmlns="http://www.w3.org/2000/svg">
    <path d="M9.5 21.9597C9.20498 21.9597 8.92963 21.879 8.67395 21.7378L6.05796 20.144C5.6646 19.9221 5.86128 19.8414 5.97929 19.8011C6.51032 19.6195 6.60866 19.5792 7.15936 19.2563C7.21844 19.216 7.29711 19.2362 7.35604 19.2765L9.36232 20.5071C9.441 20.5475 9.53934 20.5475 9.59834 20.5071L17.4462 15.847C17.5249 15.8067 17.5642 15.726 17.5642 15.6251V6.32489C17.5642 6.22403 17.5249 6.14334 17.4462 6.10299L9.59834 1.46297C9.51967 1.42262 9.42133 1.42262 9.36232 1.46297L1.51443 6.10307C1.43576 6.14341 1.39643 6.24428 1.39643 6.32497V15.6251C1.39643 15.7058 1.43576 15.8067 1.51443 15.847L3.65839 17.1179C4.81887 17.7231 5.54652 17.017 5.54652 16.311V7.13182C5.54652 7.01078 5.64493 6.88974 5.78261 6.88974H6.78575C6.90375 6.88974 7.02176 6.9906 7.02176 7.13182V16.3109C7.02176 17.9047 6.17596 18.8326 4.70079 18.8326C4.24843 18.8326 3.89441 18.8326 2.89134 18.3283L0.826055 17.1179C0.314688 16.8152 0 16.2504 0 15.6452V6.34514C0 5.73995 0.314688 5.17511 0.826055 4.87244L8.67395 0.21232C9.16564 -0.070102 9.83436 -0.070102 10.3261 0.21232L18.1739 4.87244C18.6853 5.17503 19 5.73988 19 6.34514V15.6453C19 16.2505 18.6853 16.8153 18.1739 17.1179L10.3261 21.7782C10.0704 21.8992 9.77535 21.9597 9.5 21.9597V21.9597ZM11.9192 15.5645C8.47719 15.5645 7.76914 13.9507 7.76914 12.5788C7.76914 12.4578 7.86748 12.3368 8.00516 12.3368H9.02789C9.1459 12.3368 9.24432 12.4174 9.24432 12.5385C9.40166 13.6077 9.85402 14.1322 11.9389 14.1322C13.5911 14.1322 14.2992 13.7489 14.2992 12.8412C14.2992 12.3166 14.1025 11.9333 11.5259 11.671C9.38199 11.4491 8.0445 10.9649 8.0445 9.20986C8.0445 7.5757 9.38192 6.60739 11.6242 6.60739C14.1418 6.60739 15.3809 7.49501 15.5383 9.43169C15.5383 9.49221 15.5186 9.55273 15.4793 9.61325C15.4399 9.65359 15.3809 9.69394 15.3219 9.69394H14.2992C14.2008 9.69394 14.1025 9.61325 14.0828 9.51238C13.8468 8.40287 13.2371 8.03975 11.6242 8.03975C9.81476 8.03975 9.59834 8.68529 9.59834 9.16944C9.59834 9.75453 9.85402 9.93602 12.2929 10.2588C14.7122 10.5816 15.853 11.0456 15.853 12.7806C15.8333 14.5559 14.4172 15.5645 11.9192 15.5645V15.5645Z" fill="#539E43"/>
</svg>
