<svg width="1em" height="1em" viewBox="0 0 22 22" color="currentColor" xmlns="http://www.w3.org/2000/svg">
    <title>Email Icon</title>
    <path d="M19.25 4.125H2.75C2.38533 4.125 2.03559 4.26987 1.77773 4.52773C1.51987 4.78559 1.375 5.13533 1.375 5.5V16.5C1.375 16.8647 1.51987 17.2144 1.77773 17.4723C2.03559 17.7301 2.38533 17.875 2.75 17.875H19.25C19.6147 17.875 19.9644 17.7301 20.2223 17.4723C20.4801 17.2144 20.625 16.8647 20.625 16.5V5.5C20.625 5.13533 20.4801 4.78559 20.2223 4.52773C19.9644 4.26987 19.6147 4.125 19.25 4.125ZM17.7375 5.5L11 10.1612L4.2625 5.5H17.7375ZM2.75 16.5V6.12562L10.6081 11.5637C10.7232 11.6436 10.8599 11.6864 11 11.6864C11.1401 11.6864 11.2768 11.6436 11.3919 11.5637L19.25 6.12562V16.5H2.75Z" fill="currentColor"/>
</svg>
