<svg color="inherit" fill="none" viewBox="0 0 20 20">
    <path d="M8.82 14.32l-.733-1.984s-1.191 1.322-2.978 1.322c-1.581 0-2.704-1.367-2.704-3.555 0-2.804 1.42-3.807 2.818-3.807 2.016 0 2.658 1.3 3.208 2.963l.733 2.28c.733 2.21 2.107 3.989 6.07 3.989 2.842 0 4.766-.867 4.766-3.146 0-1.846-1.054-2.804-3.024-3.26l-1.466-.319c-1.008-.228-1.306-.638-1.306-1.322 0-.775.618-1.23 1.626-1.23 1.1 0 1.696.41 1.787 1.39l2.291-.274c-.183-2.051-1.603-2.894-3.94-2.894-2.062 0-4.078.775-4.078 3.26 0 1.549.756 2.53 2.657 2.985l1.558.365c1.169.273 1.558.752 1.558 1.413 0 .843-.825 1.185-2.382 1.185-2.314 0-3.276-1.208-3.826-2.872l-.756-2.28c-.962-2.962-2.497-4.056-5.544-4.056C1.787 4.473 0 6.593 0 10.193c0 3.465 1.787 5.334 4.994 5.334 2.589 0 3.826-1.208 3.826-1.208z" fill="currentColor"/>
</svg>