<svg width="20" height="20" viewBox="0 0 20 20" color="inherit" fill="none" xmlns="http://www.w3.org/2000/svg">
    <path d="M15.82 18.2194V12.8844H17.6006V20H1.53625V12.8844H3.31063V18.2194H15.82ZM5.09063 16.4419H14.0431V14.6619H5.09063V16.4419ZM5.30938 12.3994L14.0438 14.2219L14.4181 12.4969L5.6875 10.6769L5.30938 12.3994ZM6.44188 8.18688L14.5288 11.96L15.2806 10.335L7.195 6.55937L6.4425 8.17438L6.44188 8.18688ZM8.70438 4.19938L15.55 9.9125L16.6831 8.56063L9.8375 2.85125L8.71063 4.19562L8.70438 4.19938ZM13.125 0L11.67 1.0775L17.0081 8.24813L18.4631 7.17062L13.125 0Z" fill="currentColor"/>
</svg>
