<svg width="22" height="23" viewBox="0 0 22 23" color="inherit" fill="none" xmlns="http://www.w3.org/2000/svg">
    <g clip-path="url(#clip0)">
        <path d="M18.3333 7.58898C17.7986 7.83266 17.2209 7.99837 16.6003 8.0861C17.2496 7.6962 17.6936 7.12597 17.9323 6.37541C17.3116 6.74581 16.6719 6.99438 16.013 7.12109C15.4306 6.47776 14.7001 6.15609 13.8216 6.15609C12.9909 6.15609 12.2819 6.45582 11.6947 7.0553C11.1074 7.65477 10.8138 8.37853 10.8138 9.22656C10.8138 9.50924 10.8377 9.74318 10.8854 9.92839C9.65365 9.86015 8.49826 9.54336 7.41927 8.978C6.34028 8.41264 5.42361 7.65721 4.66927 6.7117C4.39236 7.19907 4.25391 7.71569 4.25391 8.26156C4.25391 9.37278 4.68837 10.2257 5.55729 10.8203C5.10851 10.8105 4.63108 10.6838 4.125 10.4401V10.4694C4.125 11.2004 4.36372 11.8511 4.84115 12.4213C5.31858 12.9916 5.90582 13.3449 6.60286 13.4814C6.32595 13.5593 6.08247 13.5983 5.8724 13.5983C5.74826 13.5983 5.56207 13.5788 5.3138 13.5398C5.51432 14.1539 5.87001 14.6608 6.38086 15.0605C6.89171 15.4601 7.47179 15.6648 8.12109 15.6746C7.01345 16.5518 5.76736 16.9905 4.38281 16.9905C4.13455 16.9905 3.89583 16.9759 3.66667 16.9466C5.07986 17.8629 6.61719 18.321 8.27865 18.321C9.34809 18.321 10.3507 18.148 11.2865 17.802C12.2222 17.4559 13.0243 16.9929 13.6927 16.4129C14.3611 15.833 14.9364 15.1653 15.4186 14.4098C15.9008 13.6544 16.2589 12.8648 16.4928 12.0412C16.7268 11.2175 16.8438 10.3963 16.8438 9.57747C16.8438 9.40202 16.839 9.27043 16.8294 9.1827C17.431 8.74406 17.9323 8.21282 18.3333 7.58898ZM22 4.75244V18.7889C22 19.9489 21.5966 20.9407 20.7897 21.7643C19.9829 22.588 19.0113 22.9998 17.875 22.9998H4.125C2.98872 22.9998 2.01714 22.588 1.21029 21.7643C0.403429 20.9407 0 19.9489 0 18.7889V4.75244C0 3.59248 0.403429 2.60067 1.21029 1.777C2.01714 0.953338 2.98872 0.541504 4.125 0.541504H17.875C19.0113 0.541504 19.9829 0.953338 20.7897 1.777C21.5966 2.60067 22 3.59248 22 4.75244Z" fill="currentColor"/>
    </g>
    <defs>
        <clipPath id="clip0">
            <rect width="22" height="22.4583" fill="currentColor" transform="translate(0 0.541504)"/>
        </clipPath>
    </defs>
</svg>
